<svg width="209.000000" height="195.000000" viewBox="0 0 209 195" fill="none" xmlns="http://www.w3.org/2000/svg" xmlns:xlink="http://www.w3.org/1999/xlink">
	<desc>
			Created with Pixso.
	</desc>
	<defs/>
	<path id="Subtract 4" d="M92.93 110.48C117.66 109.13 137.29 88.64 137.29 63.58C137.29 38.51 117.66 18.03 92.93 16.67C91.49 16.59 90.32 17.77 90.32 19.21C90.32 20.65 91.49 21.81 92.92 21.9C114.77 23.25 132.07 41.39 132.07 63.58C132.07 85.76 114.77 103.91 92.92 105.25C91.49 105.34 90.32 106.5 90.32 107.94C90.32 109.38 91.49 110.56 92.93 110.48Z" fill="#FFFFFF" fill-opacity="1.000000" fill-rule="nonzero"/>
	<circle id="Ellipse 2" cx="90.321716" cy="63.581085" r="31.316433" fill="#FFFFFF" fill-opacity="1.000000"/>
	<path id="Subtract 5" d="M26.69 66.19C28.06 100.14 56.02 127.25 90.32 127.25C125.48 127.25 153.99 98.74 153.99 63.58C153.99 29.28 126.88 1.32 92.93 -0.05C91.49 -0.11 90.32 1.07 90.32 2.51C90.32 3.95 91.49 5.11 92.93 5.18C124 6.54 148.77 32.17 148.77 63.58C148.77 95.86 122.6 122.03 90.32 122.03C58.91 122.03 33.28 97.26 31.92 66.19C31.85 64.75 30.69 63.58 29.25 63.58C27.81 63.58 26.63 64.75 26.69 66.19Z" fill="#FFFFFF" fill-opacity="1.000000" fill-rule="nonzero"/>
	<path id="Subtract" d="M92.93 13.54C119.39 14.89 140.42 36.78 140.42 63.58C140.42 91.25 117.99 113.68 90.32 113.68C77.22 113.68 65.29 108.65 56.36 100.42C55.28 99.42 53.58 99.42 52.56 100.49C51.59 101.5 51.59 103.12 52.62 104.08C62.5 113.27 75.75 118.9 90.32 118.9C120.87 118.9 145.64 94.13 145.64 63.58C145.64 33.9 122.27 9.67 92.93 8.31C91.49 8.24 90.32 9.42 90.32 10.86C90.32 12.3 91.49 13.46 92.93 13.54Z" fill="#FFFFFF" fill-opacity="1.000000" fill-rule="nonzero"/>
	<path id="Union" d="M0 187.8L0 152.71L8.78 152.71Q17.51 152.71 22.06 157.07C25.1 159.97 26.61 164.21 26.61 169.77Q26.61 175.64 23.99 179.9L23.99 179.9Q23.03 181.46 21.72 182.81C18.48 186.14 13.99 187.8 8.26 187.8L0 187.8ZM29.25 187.8L29.25 152.71L45.64 152.71L45.64 154.94L31.67 154.94L31.67 169.01L44.64 169.01L44.64 169.03L49.79 169.03L49.79 152.71L66.18 152.71L66.18 154.94L52.21 154.94L52.21 169.03L57.39 169.03L57.39 171.22L52.21 171.22L52.21 187.8L49.79 187.8L49.79 171.22L43.37 171.22L43.37 171.21L31.67 171.21L31.67 185.6L46.45 185.6L46.45 187.8L29.25 187.8ZM110.39 152.71L112.81 152.71L112.81 187.8L110.39 187.8L110.39 152.71ZM142.14 187.8L121.24 159.44Q120.61 158.59 120.12 157.73L119.8 157.24L119.7 157.24Q119.75 157.88 119.75 158.78L119.75 187.8L117.33 187.8L117.33 152.71L119.19 152.71L139.93 180.83C140.39 181.45 140.89 182.2 141.43 183.08L141.55 183.08C141.47 181.94 141.43 180.96 141.43 180.14L141.43 152.71L143.85 152.71L143.85 187.8L142.14 187.8ZM148.34 152.71L150.77 152.71L150.77 187.8L148.34 187.8L148.34 152.71ZM164.8 154.94L164.8 187.8L162.4 187.8L162.4 154.94L152.27 154.94L152.27 152.71L174.93 152.71L174.93 154.94L164.8 154.94ZM2.42 154.94L2.42 185.6L7.92 185.6Q15.42 185.6 19.58 181.87L19.58 181.87Q19.75 181.72 19.91 181.56Q20.32 181.16 20.7 180.72Q24.09 176.74 24.09 169.87Q24.09 162.77 20.55 159.05Q16.64 154.94 8.41 154.94L2.42 154.94ZM73.31 194.36L73.31 192.15L90.32 192.15L90.32 194.36L73.31 194.36ZM93.45 194.36L93.45 192.15L110.4 192.15L110.4 194.36L93.45 194.36ZM171.91 192.15L188.76 192.15L188.76 194.36L171.91 194.36L171.91 192.15ZM191.89 194.36L191.89 192.15L209 192.15L209 194.36L191.89 194.36Z" fill="#FFFFFF" fill-opacity="1.000000" fill-rule="evenodd"/>
</svg>
